<svg xmlns="http://www.w3.org/2000/svg" width="452.047" height="360.868" viewBox="0 0 452.047 360.868">
  <g id="Group_353" transform="translate(-2015.625 -3860.808)">
    <g id="Group_329" transform="translate(2192.938 3860.808)">
      <rect id="Rectangle_306" width="135.041" height="129.169" rx="7.963" fill="#89aeff"/>
      <rect id="Rectangle_307" width="61.897" height="3.748" rx="1.874" transform="translate(16.436 14.949)" fill="#d2dcff"/>
      <rect id="Rectangle_308"  width="43.203" height="3.748" rx="1.874" transform="translate(16.436 24.298)" fill="#d2dcff"/>
      <rect id="Rectangle_309"  width="13.068" height="2.677" rx="1.338" transform="translate(16.436 40.688)" fill="#6277d7"/>
      <rect id="Rectangle_310"  width="34.79" height="8.085" rx="1.707" transform="translate(70.959 81.245)" fill="#d2dcff"/>
      <rect id="Rectangle_311"  width="47.731" height="8.085" rx="1.707" transform="translate(70.959 95.941)" fill="#d2dcff"/>
      <g id="Group_328" data-name="Group 328" transform="translate(16.32 70.024)">
        <path id="Path_947" data-name="Path 947" d="M2282.692,3992.84a2.5,2.5,0,0,1,2.5-2.5,17.619,17.619,0,1,1,17.619-17.619,2.5,2.5,0,1,1,4.992,0,22.611,22.611,0,1,0-22.611,22.611A2.5,2.5,0,0,1,2282.692,3992.84Z" transform="translate(-2262.577 -3950.114)" fill="#d2dcff"/>
        <path id="Path_948" data-name="Path 948" d="M2310.843,3975.768a2.5,2.5,0,0,0-2.5,2.5,17.639,17.639,0,0,1-17.619,17.619,2.5,2.5,0,1,0,0,4.992,22.636,22.636,0,0,0,22.611-22.611A2.5,2.5,0,0,0,2310.843,3975.768Z" transform="translate(-2268.116 -3955.653)" fill="#6277d7"/>
      </g>
    </g>
    <g id="Group_330" data-name="Group 330" transform="translate(2068.54 4088.381)">
      <path id="Rectangle_312" data-name="Rectangle 312" d="M4.762,0H31.019a0,0,0,0,1,0,0V76.724a0,0,0,0,1,0,0H4.762A4.762,4.762,0,0,1,0,71.962V4.762A4.762,4.762,0,0,1,4.762,0Z" transform="translate(0)" fill="#86a2e2"/>
      <path id="Rectangle_313" data-name="Rectangle 313" d="M0,0H77.631a4.762,4.762,0,0,1,4.762,4.762v67.2a4.762,4.762,0,0,1-4.762,4.762H0a0,0,0,0,1,0,0V0A0,0,0,0,1,0,0Z" transform="translate(31.019)" fill="#aec3ff"/>
      <rect id="Rectangle_314" data-name="Rectangle 314" width="65.216" height="24.468" transform="translate(39.607 11.021)" fill="#d2dcff"/>
      <rect id="Rectangle_315" data-name="Rectangle 315" width="65.216" height="24.468" transform="translate(39.607 41.236)" fill="#d2dcff"/>
      <rect id="Rectangle_316" data-name="Rectangle 316" width="25.291" height="2.085" rx="1.043" transform="translate(59.569 28.84)" fill="#aec3ff"/>
      <rect id="Rectangle_317" data-name="Rectangle 317" width="25.291" height="2.085" rx="1.043" transform="translate(59.569 59.055)" fill="#aec3ff"/>
      <path id="Path_949" data-name="Path 949" d="M2093.743,4248.9l-1.222,8.658-6.764,47.913h-2.646l4.517-48.068.8-8.5Z" transform="translate(-2083.11 -4172.171)" fill="#d2dcff"/>
      <path id="Path_950" data-name="Path 950" d="M2133.984,4248.9l-1.363,9.655L2126,4305.467h-2.646l4.423-47.07.893-9.5Z" transform="translate(-2091.799 -4172.171)" fill="#d2dcff"/>
      <path id="Path_951" data-name="Path 951" d="M2224.822,4305.467h-2.646l-6.339-44.9-1.648-11.673h5.316l1.111,11.824Z" transform="translate(-2111.411 -4172.171)" fill="#d2dcff"/>
      <path id="Path_952" data-name="Path 952" d="M2184.583,4305.467h-2.646l-6.481-45.9-1.506-10.667h5.317l1.017,10.82Z" transform="translate(-2102.723 -4172.171)" fill="#d2dcff"/>
      <path id="Path_953" data-name="Path 953" d="M2089.671,4248.9h5.316l-1.222,8.658-4.893-.155Z" transform="translate(-2084.354 -4172.171)" fill="#aec3ff"/>
      <path id="Path_954" data-name="Path 954" d="M2129.885,4248.9h5.317l-1.363,9.655-4.846-.154Z" transform="translate(-2093.017 -4172.171)" fill="#aec3ff"/>
      <path id="Path_955" data-name="Path 955" d="M2179.266,4248.9l1.017,10.82-4.827-.153-1.506-10.667Z" transform="translate(-2102.723 -4172.171)" fill="#aec3ff"/>
      <path id="Path_956" data-name="Path 956" d="M2220.617,4260.72l-4.78-.151-1.648-11.673h5.316Z" transform="translate(-2111.411 -4172.171)" fill="#aec3ff"/>
    </g>
    <g id="Group_331" data-name="Group 331" transform="translate(2249.3 4054.151)">
      <path id="Path_957" data-name="Path 957" d="M2521.126,4171.671v-1.084a.607.607,0,0,0-.607-.607h-25.151a2.3,2.3,0,0,0-2.3,2.3h0v1.848h0a2.3,2.3,0,0,0,2.3,2.3h25.151a.606.606,0,0,0,.607-.607v-1.083a.606.606,0,0,0-.607-.607h-24.228a.924.924,0,0,1-.924-.925h0a.923.923,0,0,1,.924-.923h24.228A.607.607,0,0,0,2521.126,4171.671Z" transform="translate(-2352.383 -4120.904)" fill="#6277d7"/>
      <path id="Path_958" data-name="Path 958" d="M2520.673,4172.911v1.848h-23.748a.924.924,0,0,1-.924-.924h0a.923.923,0,0,1,.924-.924Z" transform="translate(-2353.016 -4121.537)" fill="#d2dcff"/>
      <path id="Path_959" data-name="Path 959" d="M2519.824,4163.453v-1.083a.607.607,0,0,0-.607-.607H2497.66a2.3,2.3,0,0,0-2.3,2.3h0v1.849h0a2.3,2.3,0,0,0,2.3,2.3h21.557a.606.606,0,0,0,.607-.607v-1.083a.607.607,0,0,0-.607-.607h-20.633a.924.924,0,0,1-.924-.924h0a.924.924,0,0,1,.924-.924h20.633A.606.606,0,0,0,2519.824,4163.453Z" transform="translate(-2352.878 -4119.129)" fill="#fe9ecc"/>
      <path id="Path_960" data-name="Path 960" d="M2519.658,4164.692v1.849h-20.441a.924.924,0,0,1-.924-.924h0a.924.924,0,0,1,.924-.925Z" transform="translate(-2353.511 -4119.762)" fill="#ffd9e8"/>
      <path id="Path_961" data-name="Path 961" d="M2498.858,4183.622l-13.327,107.752h-2.646l13.327-107.752Z" transform="translate(-2350.184 -4123.849)" fill="#d2dcff"/>
      <path id="Path_962" data-name="Path 962" d="M2543.519,4291.374h-2.646l-11.4-92.184-1.926-15.568h2.646l1.9,15.348Z" transform="translate(-2359.827 -4123.849)" fill="#d2dcff"/>
      <path id="Path_963" data-name="Path 963" d="M2329.617,4183.622l-3.565,28.829-9.762,78.923h-2.646l9.734-78.7,3.593-29.054Z" transform="translate(-2313.644 -4123.849)" fill="#d2dcff"/>
      <path id="Path_964" data-name="Path 964" d="M2374.278,4291.374h-2.646l-10.032-81.108-3.3-26.644h2.646l3.268,26.423Z" transform="translate(-2323.286 -4123.849)" fill="#d2dcff"/>
      <path id="Path_965" data-name="Path 965" d="M2329.651,4183.622h2.646l-3.565,28.829-2.674.226Z" transform="translate(-2316.324 -4123.849)" fill="#aec3ff"/>
      <path id="Path_966" data-name="Path 966" d="M2360.951,4183.622l3.268,26.423-2.619.221-3.3-26.644Z" transform="translate(-2323.286 -4123.849)" fill="#aec3ff"/>
      <path id="Path_967" data-name="Path 967" d="M2532.09,4198.97l-2.619.221-1.926-15.568h2.646Z" transform="translate(-2359.827 -4123.849)" fill="#aec3ff"/>
      <path id="Rectangle_318" data-name="Rectangle 318" d="M0,0H134.95a2.126,2.126,0,0,1,2.126,2.126v0a2.126,2.126,0,0,1-2.126,2.126H0a0,0,0,0,1,0,0V0A0,0,0,0,1,0,0Z" transform="translate(42.427 55.521)" fill="#d2dcff"/>
      <path id="Rectangle_319" data-name="Rectangle 319" d="M2.126,0H37.57a0,0,0,0,1,0,0V4.252a0,0,0,0,1,0,0H2.126A2.126,2.126,0,0,1,0,2.126v0A2.126,2.126,0,0,1,2.126,0Z" transform="translate(4.857 55.521)" fill="#86a2e2"/>
      <path id="Path_968" data-name="Path 968" d="M2367.447,4165.011h11.869a.976.976,0,0,1,.969,1.093l-1,8.387a.978.978,0,0,1-.97.861h-9.861a.977.977,0,0,1-.969-.861l-1-8.387A.976.976,0,0,1,2367.447,4165.011Z" transform="translate(-2325.049 -4119.831)" fill="#d2dcff"/>
      <path id="Path_969" data-name="Path 969" d="M2377.321,4158.851v-3.814l-2.282,4.336v-7.041l-1.793,4.433-1.792-4.433v7.041l-2.282-4.336v3.814l-3.325-5.346,1.465,8.769h11.869l1.465-8.769Z" transform="translate(-2324.915 -4117.093)" fill="#6277d7"/>
      <path id="Path_970" data-name="Path 970" d="M2469.194,4152.017h-74.254l8.279-44.627h74.254Z" transform="translate(-2331.196 -4107.39)" fill="#d2dcff"/>
      <path id="Path_971" data-name="Path 971" d="M2441.826,4139.167h8.34l10.979,30.6h-14.569Z" transform="translate(-2341.319 -4114.251)" fill="#86a2e2"/>
      <rect id="Rectangle_320" data-name="Rectangle 320" width="26.42" height="1.965" rx="0.982" transform="translate(74.604 53.556)" fill="#86a2e2"/>
      <path id="Path_972" data-name="Path 972" d="M2441.826,4139.167v19.711h3.06Z" transform="translate(-2341.319 -4114.251)" fill="#aec3ff"/>
    </g>
    <g id="Group_339" data-name="Group 339" transform="translate(2103.935 3968.295)">
      <g id="Group_337" data-name="Group 337" transform="translate(42.729)">
        <g id="Group_332" data-name="Group 332" transform="translate(0 11.561)">
          <path id="Path_973" data-name="Path 973" d="M2217.529,4017.179c-10.263,1.71-23.052-2.109-24.656-4.542-3.716,5.663-5.6,5.486-5.6,5.486v4.248l-.839-.84c-.259-.585-.67-1.166-1.285-1.166-3.379,0-3.615,9.4,2.073,9.943.112.369.227.713.346,1.025v15.044h12.829v-5.917a9.376,9.376,0,0,0,2.448.372c5.058,0,13.678-7.438,14.656-19.3C2217.556,4019.291,2217.529,4017.179,2217.529,4017.179Z" transform="translate(-2182.747 -4012.637)" fill="#fcbeb7"/>
        </g>
        <path id="Path_974" data-name="Path 974" d="M2202.355,3997.892c-8.848,0-10.617,4.719-10.617,4.719-3.775,0-9.556,6.9-6.076,14.569l.018.018,1.988,1.988v-4.248s1.888.177,5.6-5.486c1.6,2.433,14.392,6.252,24.656,4.542,0,0,.027,2.112-.032,4.351v.006C2221.729,4007.264,2214.034,3997.892,2202.355,3997.892Z" transform="translate(-2183.145 -3997.892)" fill="#311643"/>
        <g id="Group_333" data-name="Group 333" transform="translate(14.698 19.009)">
          <path id="Path_975" data-name="Path 975" d="M2202.2,4024.872a.708.708,0,0,1-.708-.707v-1.323a.708.708,0,0,1,1.416,0v1.323A.707.707,0,0,1,2202.2,4024.872Z" transform="translate(-2201.492 -4022.135)" fill="#311643"/>
        </g>
        <g id="Group_334" data-name="Group 334" transform="translate(27.822 19.009)">
          <path id="Path_976" data-name="Path 976" d="M2218.938,4024.872a.708.708,0,0,1-.708-.707v-1.323a.708.708,0,0,1,1.416,0v1.323A.708.708,0,0,1,2218.938,4024.872Z" transform="translate(-2218.23 -4022.135)" fill="#311643"/>
        </g>
        <g id="Group_335" data-name="Group 335" transform="translate(16.995 29.424)">
          <path id="Path_977" data-name="Path 977" d="M2208.037,4037.95a4.045,4.045,0,0,1-2.645-.908,3.621,3.621,0,0,1-.942-1.166.324.324,0,0,1,.591-.267h0a3.308,3.308,0,0,0,3.541,1.66.324.324,0,1,1,.074.645A5.431,5.431,0,0,1,2208.037,4037.95Z" transform="translate(-2204.422 -4035.418)" fill="#311643"/>
        </g>
        <circle id="Ellipse_109" data-name="Ellipse 109" cx="3.5" cy="3.5" r="3.5" transform="translate(7.207 22.562)" fill="#f49795"/>
        <path id="Path_978" data-name="Path 978" d="M2225.1,4027.261a24.933,24.933,0,0,1-2.127,6.4,3.5,3.5,0,1,1,2.127-6.4Z" transform="translate(-2190.715 -4004.105)" fill="#f49795"/>
        <g id="Group_336" data-name="Group 336" transform="translate(10.446 15.418)">
          <circle id="Ellipse_110" data-name="Ellipse 110" cx="4.311" cy="4.311" r="4.311" transform="translate(0.649 0.649)" fill="none"/>
          <circle id="Ellipse_111" data-name="Ellipse 111" cx="4.311" cy="4.311" r="4.311" transform="translate(13.139 1.395) rotate(-9.217)" fill="none"/>
          <path id="Path_979" data-name="Path 979" d="M2214.153,4017.555a4.967,4.967,0,0,0-4.931,4.428,3.816,3.816,0,0,0-3.262,0,4.968,4.968,0,1,0,.024.717,3.244,3.244,0,0,1,3.215,0,4.959,4.959,0,1,0,4.955-5.147Zm-13.124,9.27a4.31,4.31,0,1,1,4.311-4.311A4.315,4.315,0,0,1,2201.029,4026.825Zm13.124,0a4.31,4.31,0,1,1,4.311-4.311A4.315,4.315,0,0,1,2214.153,4026.825Z" transform="translate(-2196.069 -4017.555)" fill="#fff"/>
        </g>
        <path id="Path_980" data-name="Path 980" d="M2202.861,4052.768v-5.917a28.608,28.608,0,0,1-8.686-4.613Z" transform="translate(-2185.214 -4007.467)" fill="#f9afab"/>
      </g>
      <path id="Path_981" data-name="Path 981" d="M2224.153,4268.208h-13.587l-13.179-70.09-9.668-30.377-23.405,100.467h-13.587l12.66-112.713h50.2Z" transform="translate(-2133.104 -4031.919)" fill="#6277d7"/>
      <path id="Path_982" data-name="Path 982" d="M2228.418,4306.212v9.6a2.028,2.028,0,0,0,2.028,2.027h27.235a.469.469,0,0,0,.469-.469v-1.85a2.106,2.106,0,0,0-1.19-1.9l-15.356-7.415Z" transform="translate(-2149.878 -4064.46)" fill="#2f3d6c"/>
      <path id="Path_983" data-name="Path 983" d="M2157.983,4306.212v9.6a2.027,2.027,0,0,1-2.027,2.027h-27.235a.469.469,0,0,1-.47-.469v-1.85a2.106,2.106,0,0,1,1.191-1.9l15.356-7.415Z" transform="translate(-2128.252 -4064.46)" fill="#2f3d6c"/>
      <path id="Path_984" data-name="Path 984" d="M2227.042,4299.245l1.023,5.462h13.24l-.676-5.462Z" transform="translate(-2149.582 -4062.956)" fill="#fcbeb7"/>
      <path id="Path_985" data-name="Path 985" d="M2150.43,4299.245l-1.075,5.462h13.184l1.478-5.462Z" transform="translate(-2132.808 -4062.956)" fill="#fcbeb7"/>
      <path id="Path_986" data-name="Path 986" d="M2166.526,4157.912l50.966,2.879-.5-5.3h-50.2" transform="translate(-2136.516 -4031.919)" fill="#4a5ea3"/>
      <path id="Path_987" data-name="Path 987" d="M2169.926,4087.789" transform="translate(-2137.25 -4017.302)" fill="#fcbeb7"/>
      <line id="Line_5" data-name="Line 5" x2="11.583" y2="8.905" transform="translate(18.487 64.179)" fill="#fcbeb7"/>
      <path id="Path_988" data-name="Path 988" d="M2193.7,4049.228l19.42,8.429a7.985,7.985,0,0,1,3.493,2.916l7.776,11.717-10.965,9.675-2.929-2.5,3.326,53.087h-50.2l3.076-34.615-.681-18.472-2.606,2.6-11.583-8.9,6.223-10.142a15.429,15.429,0,0,1,6.412-5.811l16.43-7.974S2188.346,4054.118,2193.7,4049.228Z" transform="translate(-2133.343 -4008.976)" fill="#89aeff"/>
      <g id="Group_338" data-name="Group 338" transform="translate(44.623 41.428)">
        <path id="Path_989" data-name="Path 989" d="M2204.491,4051.111a14.648,14.648,0,0,1-18.822-.383l-.507.246a15.164,15.164,0,0,0,19.864.369Z" transform="translate(-2185.162 -4050.728)" fill="#fff"/>
      </g>
      <path id="Path_990" data-name="Path 990" d="M2165.571,4061.169a4.317,4.317,0,0,1-5.739,4.073,15.41,15.41,0,0,1,5.559-5.309A4.325,4.325,0,0,1,2165.571,4061.169Z" transform="translate(-2135.07 -4011.287)" fill="#4a62d3"/>
      <path id="Path_991" data-name="Path 991" d="M2234.195,4064.464a4.318,4.318,0,0,1-6.043-5.26l1.4.607a7.977,7.977,0,0,1,3.492,2.916Z" transform="translate(-2149.77 -4011.13)" fill="#4a62d3"/>
      <circle id="Ellipse_112" data-name="Ellipse 112" cx="6.504" cy="6.504" r="6.504" transform="translate(26.604 161.902)" fill="#4a5ea3"/>
      <circle id="Ellipse_113" data-name="Ellipse 113" cx="6.504" cy="6.504" r="6.504" transform="translate(69.994 161.902)" fill="#4a5ea3"/>
      <path id="Path_992" data-name="Path 992" d="M2296.816,4059.7l-.545-.091-.085-.333a1.5,1.5,0,0,0-1.352-1.125l-7.64-.517-5.315-2.161,2.968-3.7a1.492,1.492,0,0,0-.157-2.034l-6.261,4.824a5.62,5.62,0,0,0-1.5,1.748l-1.959,3.57.01.013-28.625,20.007-5.006-7.5-10.965,9.675,13.726,12.138a2.134,2.134,0,0,0,2.823-.031l32.22-28.991,6.167.587a10.75,10.75,0,0,0,4.132-.412l3.274-.99a.983.983,0,0,0,.625-1.316l2.332-.448a1.008,1.008,0,0,0,.812-.884l.039-.377h.144a.83.83,0,0,0,.136-1.648Z" transform="translate(-2150.303 -4009.086)" fill="#fcbeb7"/>
      <path id="Path_993" data-name="Path 993" d="M2172.7,4135.088l-5.106-2.279a1.431,1.431,0,0,1-.76-.816l-.74-2.038,2.58.633.823,1.767a1.212,1.212,0,0,0,1.578.6l-1.074-3.243a2.211,2.211,0,0,0-1.085-1.183l-5.392-2.651-9.3-30.163,7.1-7.069-11.583-8.905-6.774,11.787a5.936,5.936,0,0,0-.306,5.3l18.8,42.987,3.731.173a1.221,1.221,0,0,0,1.1-.592l.406-.678,1.963.161a1.218,1.218,0,0,0,1.081-.49l.461-.623.276.073a1.68,1.68,0,0,0,1.909-.83l1.363.454A1.948,1.948,0,0,0,2172.7,4135.088Z" transform="translate(-2131.26 -4015.564)" fill="#fcbeb7"/>
      <path id="Path_994" data-name="Path 994" d="M2146.931,4097.1a4.365,4.365,0,0,1-3.528,4.284l-.735-1.708a5.933,5.933,0,0,1,.307-5.3l.837-1.458A4.367,4.367,0,0,1,2146.931,4097.1Z" transform="translate(-2131.26 -4018.408)" fill="#f9afab"/>
      <path id="Path_995" data-name="Path 995" d="M2252.975,4102.178l-3.095,2.789a2.132,2.132,0,0,1-2.823.03l-3.034-2.619a5.162,5.162,0,0,1,8.951-.2Z" transform="translate(-2153.248 -4019.87)" fill="#f9afab"/>
    </g>
    <g id="Group_347" data-name="Group 347" transform="translate(2282.844 3968.193)">
      <g id="Group_345" data-name="Group 345" transform="translate(54.155)">
        <path id="Path_996" data-name="Path 996" d="M2427.977,4020.49v22.648h37.276v-27.5c0-10.875-8.75-12.767-8.75-12.767s-3.182-5.109-12.44-5.109c-11.14,0-18.57,6.825-18.57,15.249A11.725,11.725,0,0,0,2427.977,4020.49Zm.187-3.758c1.409-.318,5.37-3.809,5.37-7.387,3.1,5.129,12.576,12.509,26.666,8h0a.962.962,0,0,1,.134-.01c3.351,0,3.586,9.322-2.056,9.861-.083.274-.168.534-.255.777v15.159H2445.3v-5.892a9.413,9.413,0,0,1-2.515.394C2437.521,4037.639,2428.373,4029.52,2428.164,4016.732Z" transform="translate(-2425.492 -3997.762)" fill="#311643"/>
        <path id="Path_997" data-name="Path 997" d="M2446.036,4041.82v-1.385a9.413,9.413,0,0,1-2.515.394c-5.263,0-14.412-8.119-14.62-20.907,1.409-.318,5.37-3.809,5.37-7.387,3.1,5.129,12.576,12.509,26.666,8h0a.962.962,0,0,1,.134-.01c3.351,0,3.586,9.322-2.056,9.861-.083.274-.168.534-.255.777v10.2l9.965,4.7v12.3H2435.61v-13.408l10.425-3.134Z" transform="translate(-2426.228 -4000.951)" fill="#fcbeb7"/>
        <path id="Path_998" data-name="Path 998" d="M2437.457,4064.743v-13.408l10.425-3.134v-1.385a28.84,28.84,0,0,0,8.76-4.728Z" transform="translate(-2428.075 -4007.332)" fill="#f9afab"/>
        <circle id="Ellipse_114" data-name="Ellipse 114" cx="3.471" cy="3.471" r="3.471" transform="translate(23.132 22.824)" fill="#f49795"/>
        <path id="Path_999" data-name="Path 999" d="M2429.47,4027.461a24.755,24.755,0,0,0,2.109,6.348,3.471,3.471,0,1,0-2.109-6.348Z" transform="translate(-2426.351 -4004.047)" fill="#f49795"/>
        <g id="Group_340" data-name="Group 340" transform="translate(3.404 15.072)">
          <circle id="Ellipse_115" data-name="Ellipse 115" cx="4.275" cy="4.275" r="4.275" transform="translate(0 7.9) rotate(-67.5)" fill="none"/>
          <circle id="Ellipse_116" data-name="Ellipse 116" cx="4.275" cy="4.275" r="4.275" transform="translate(13.016 7.9) rotate(-67.5)" fill="none"/>
          <path id="Path_1000" data-name="Path 1000" d="M2430.684,4022.754a4.918,4.918,0,0,0,9.833.186,3.181,3.181,0,0,1,3.187-.005,4.913,4.913,0,1,0,.024-.709,3.78,3.78,0,0,0-3.236,0,4.919,4.919,0,0,0-9.809.527Zm13.66,0a4.275,4.275,0,1,1,4.276,4.275A4.28,4.28,0,0,1,2444.344,4022.754Zm-13.016,0a4.275,4.275,0,1,1,4.276,4.275A4.28,4.28,0,0,1,2431.328,4022.754Z" transform="translate(-2430.017 -4017.167)" fill="#fff"/>
        </g>
        <g id="Group_343" data-name="Group 343" transform="translate(8.285 19.3)">
          <g id="Group_341" data-name="Group 341">
            <path id="Path_1001" data-name="Path 1001" d="M2436.761,4025.092a.7.7,0,0,0,.7-.7v-1.311a.7.7,0,1,0-1.4,0v1.311A.7.7,0,0,0,2436.761,4025.092Z" transform="translate(-2436.058 -4022.376)" fill="#311643"/>
          </g>
          <g id="Group_342" data-name="Group 342" transform="translate(12.806)">
            <path id="Path_1002" data-name="Path 1002" d="M2453.092,4025.092a.7.7,0,0,0,.7-.7v-1.311a.7.7,0,1,0-1.4,0v1.311A.7.7,0,0,0,2453.092,4025.092Z" transform="translate(-2452.39 -4022.376)" fill="#311643"/>
          </g>
        </g>
        <g id="Group_344" data-name="Group 344" transform="translate(15.881 29.63)">
          <path id="Path_1003" data-name="Path 1003" d="M2446.646,4038.061a4.013,4.013,0,0,0,2.623-.9,3.563,3.563,0,0,0,.934-1.157.321.321,0,0,0-.586-.265h0a3.282,3.282,0,0,1-3.512,1.647.322.322,0,1,0-.074.639A5.275,5.275,0,0,0,2446.646,4038.061Z" transform="translate(-2445.746 -4035.551)" fill="#311643"/>
        </g>
      </g>
      <path id="Path_1004" data-name="Path 1004" d="M2415.818,4299.168l-1.317,5.472-14.358,4.509,2.065-9.981Z" transform="translate(-2365.864 -4062.837)" fill="#fcbeb7"/>
      <path id="Path_1005" data-name="Path 1005" d="M2478.081,4299.168l-.392,6.759.895.33.59,2.894-14.344-4.511-.358-5.472Z" transform="translate(-2379.753 -4062.837)" fill="#fcbeb7"/>
      <path id="Path_1006" data-name="Path 1006" d="M2385.585,4312.781l11.671-5.018-.6,2.893,14.358-4.509v4.114a4.111,4.111,0,0,1-1.946,3.495l-1.235,3.53a.761.761,0,0,1-1.479-.251v-2.3l-9.813,3.057h-9.927a2.613,2.613,0,0,1-2.614-2.613h0A2.613,2.613,0,0,1,2385.585,4312.781Z" transform="translate(-2362.379 -4064.344)" fill="#2f3d6c"/>
      <path id="Path_1007" data-name="Path 1007" d="M2464.912,4310.21l.012-4.114,14.344,4.551-.59-2.895,11.657,5.052a2.616,2.616,0,0,1,1.574,2.407h0a2.614,2.614,0,0,1-2.621,2.605l-9.927-.029-10.148-3.193-.007,2.4a.76.76,0,0,1-1.479.246l-1.339-3.865A4.112,4.112,0,0,1,2464.912,4310.21Z" transform="translate(-2379.848 -4064.333)" fill="#2f3d6c"/>
      <path id="Path_1008" data-name="Path 1008" d="M2462.589,4123.649l5.3,22.425a70.346,70.346,0,0,1,1.79,19.783l-4.915,95.416h-13.609l-5.811-99.023-28.953,99.023h-13.609l23.962-137.624Z" transform="translate(-2366.433 -4024.942)" fill="#6277d7"/>
      <path id="Path_1009" data-name="Path 1009" d="M2454.537,4061.954c-2.417,0-4.349-2.327-5.653-4.684h13.781C2460.563,4059.621,2457.685,4061.954,2454.537,4061.954Z" transform="translate(-2376.387 -4010.61)" fill="#fff"/>
      <path id="Path_1010" data-name="Path 1010" d="M2420.2,4060.81a16.571,16.571,0,0,1,9.115-6.9l9.133-2.781a17.212,17.212,0,0,0,1.885,4.812c1.3,2.357,3.236,4.684,5.653,4.684,3.148,0,6.026-2.333,8.128-4.684a29.732,29.732,0,0,0,3.465-4.788l9.488,4.4a14.136,14.136,0,0,1,7.776,9.416l7,28.151-12.872,0-3.159-10.931-1.819,25.8h-35.85l-3.258-27.462-8.54,7.681-7.084-10.376Z" transform="translate(-2367.832 -4009.285)" fill="#fe9ecc"/>
      <path id="Path_1011" data-name="Path 1011" d="M2357.12,4047.136l.546-.091.085-.333a1.5,1.5,0,0,1,1.354-1.127l7.654-.517,5.324-2.166-2.972-3.709a1.494,1.494,0,0,1,.157-2.037l6.271,4.831a5.632,5.632,0,0,1,1.5,1.751l1.723,3.14.009-.011,26.166,38.327-3.595,3.285a6.062,6.062,0,0,1-9.513-1.77l-17-34.078-6.2.59a10.768,10.768,0,0,1-4.139-.413l-3.279-.991a.986.986,0,0,1-.626-1.318l-2.336-.449a1.008,1.008,0,0,1-.812-.885l-.04-.377h-.143a.831.831,0,0,1-.831-.831h0A.832.832,0,0,1,2357.12,4047.136Z" transform="translate(-2356.425 -4006.267)" fill="#fcbeb7"/>
      <path id="Path_1012" data-name="Path 1012" d="M2409.257,4085.188l9.948,7.8-2.864,2.576Z" transform="translate(-2367.832 -4016.638)" fill="#ff78ba"/>
      <g id="Group_346" data-name="Group 346" transform="translate(67.717 42.557)">
        <path id="Path_1013" data-name="Path 1013" d="M2452.867,4064.177a11.754,11.754,0,0,0,6.028-1.8,21.523,21.523,0,0,0,4.708-3.928,32.367,32.367,0,0,0,4.191-5.713l-.528-.245a31.834,31.834,0,0,1-4.1,5.57,20.967,20.967,0,0,1-4.575,3.816,11.171,11.171,0,0,1-5.723,1.717,7.188,7.188,0,0,1-4.767-1.768,12.017,12.017,0,0,1-2.913-3.949,22.281,22.281,0,0,1-1.831-5.838l-.568.172a22.085,22.085,0,0,0,1.873,5.922,12.6,12.6,0,0,0,3.06,4.138A7.757,7.757,0,0,0,2452.867,4064.177Z" transform="translate(-2442.789 -4052.037)" fill="#fff"/>
      </g>
      <circle id="Ellipse_117" data-name="Ellipse 117" cx="6.514" cy="6.514" r="6.514" transform="translate(49.917 161.822)" fill="#4a5ea3"/>
      <circle id="Ellipse_118" data-name="Ellipse 118" cx="6.514" cy="6.514" r="6.514" transform="translate(84.047 161.822)" fill="#4a5ea3"/>
      <path id="Path_1014" data-name="Path 1014" d="M2424.333,4060.542a4.162,4.162,0,0,0,6.2-4.885A16.576,16.576,0,0,0,2424.333,4060.542Z" transform="translate(-2371.087 -4010.262)" fill="#ff78ba"/>
      <path id="Path_1015" data-name="Path 1015" d="M2482.908,4059.774a4.161,4.161,0,0,0,6.626,3.352,14.134,14.134,0,0,0-5.789-5.856A4.141,4.141,0,0,0,2482.908,4059.774Z" transform="translate(-2383.734 -4010.61)" fill="#ff78ba"/>
      <rect id="Rectangle_321" data-name="Rectangle 321" width="31.85" height="44.304" rx="1.242" transform="matrix(-0.999, -0.038, 0.038, -0.999, 87.054, 106.571)" fill="#4a5ea3"/>
      <rect id="Rectangle_322" data-name="Rectangle 322" width="31.85" height="44.304" rx="1.242" transform="matrix(-0.994, 0.107, -0.107, -0.994, 87.143, 104.148)" fill="#4a5ea3"/>
      <path id="Path_1016" data-name="Path 1016" d="M2421.22,4106.924a2.1,2.1,0,0,1,.7-1.478l.558-.5.026-.264a2.023,2.023,0,0,1,1.914-1.821l3.613-.177-1.9-2.94a.839.839,0,0,1-.109-.666h0a.841.841,0,0,1,1.263-.5l10.29,6.492,33.979-1.732,12.873,0,1.551,5.485a6.3,6.3,0,0,1-6.714,7.979l-41.689-4.343-11.855,1.823-.528-.143a2.1,2.1,0,0,1-1.552-2.007l-.007-.732-.02-.01a2.1,2.1,0,0,1-1.242-1.981l.013-.43-.436-.378A2.1,2.1,0,0,1,2421.22,4106.924Z" transform="translate(-2370.415 -4019.501)" fill="#fcbeb7"/>
      <path id="Path_1017" data-name="Path 1017" d="M2493.894,4116.021a4.31,4.31,0,0,0,2.046,3.67,6.314,6.314,0,0,0,5.955-5.906,4.313,4.313,0,0,0-8,2.236Z" transform="translate(-2386.105 -4022.364)" fill="#f9afab"/>
      <path id="Path_1018" data-name="Path 1018" d="M2402.618,4101.087a6.066,6.066,0,0,0,8.42.766,4.313,4.313,0,0,0-8.42-.766Z" transform="translate(-2366.398 -4019.406)" fill="#f9afab"/>
      <path id="Path_1019" data-name="Path 1019" d="M2456.943,4133.411s-26.545,5.477-26.541,5.45l.823-4.72,11.669-1.261Z" transform="translate(-2372.397 -4026.935)" fill="#4a5ea3"/>
      <path id="Path_1020" data-name="Path 1020" d="M2464.3,4077.016l-.089,22.495-2.44-22.59Z" transform="translate(-2379.169 -4014.853)" fill="#2f3d6c"/>
    </g>
    <g id="Group_348" data-name="Group 348" transform="translate(2015.625 4140.655)">
      <path id="Path_1021" data-name="Path 1021" d="M2044.1,4260.334c9.311-17.049-20.084-25.065-27.171-18.3S2033.341,4280.04,2044.1,4260.334Z" transform="translate(-2015.625 -4222.446)" fill="#fe9ecc"/>
      <path id="Path_1022" d="M2064.629,4250.4c18.273,0,10-32.684,2.191-32.684C2057.024,4217.713,2043.516,4250.4,2064.629,4250.4Z" transform="translate(-2023.792 -4217.713)" fill="#fe9ecc"/>
      <path id="Path_1023" data-name="Path 1023" d="M2084.344,4267.5c15.065,12.264,28.307-15.177,22.949-23.377S2066.93,4253.324,2084.344,4267.5Z" transform="translate(-2029.422 -4222.96)" fill="#fe9ecc"/>
      <path id="Path_1024" data-name="Path 1024" d="M2053.29,4276.966a54.254,54.254,0,0,0-11.062-16.294,62.454,62.454,0,0,0-16.832-12.352.508.508,0,1,0-.418.925,61.418,61.418,0,0,1,16.547,12.162,53.193,53.193,0,0,1,10.841,15.981c.282.655.545,1.316.8,1.981h1.086C2053.95,4278.562,2053.632,4277.759,2053.29,4276.966Z" transform="translate(-2017.58 -4224.312)" fill="#ff78ba"/>
      <path id="Path_1025" data-name="Path 1025" d="M2068.965,4226.1a.508.508,0,0,0-1.009-.121,444.155,444.155,0,0,0-2.464,48.477h1.015A443.014,443.014,0,0,1,2068.965,4226.1Z" transform="translate(-2026.39 -4219.402)" fill="#ff78ba"/>
      <path id="Path_1026" data-name="Path 1026" d="M2100.8,4249.323a.507.507,0,0,0-.7-.139,95.8,95.8,0,0,0-14.943,13.087,74.111,74.111,0,0,0-12.2,17.277h1.135a73.522,73.522,0,0,1,11.789-16.568,94.7,94.7,0,0,1,14.78-12.952A.509.509,0,0,0,2100.8,4249.323Z" transform="translate(-2028.003 -4224.489)" fill="#ff78ba"/>
      <path id="Path_1027" data-name="Path 1027" d="M2061.416,4287.932h-18.707a.8.8,0,0,0-.763,1.051l.9,2.745.453,1.389,6.478,19.873a1.311,1.311,0,0,0,1.247.9h23.348a1.311,1.311,0,0,0,1.246-.9l6.478-19.873.452-1.389.895-2.745a.8.8,0,0,0-.762-1.051h-21.259Z" transform="translate(-2021.299 -4232.874)" fill="#d2dcff"/>
      <path id="Path_1028" data-name="Path 1028" d="M2082.8,4292.773l-.453,1.389h-38.8l-.453-1.389Z" transform="translate(-2021.557 -4233.919)" fill="#aec3ff"/>
    </g>
    <g id="Group_351" data-name="Group 351" transform="translate(2083.978 3959.841)">
      <rect id="Rectangle_323" data-name="Rectangle 323" width="42.967" height="36.436" rx="2.633" transform="translate(0 2.586)" fill="#d2dcff"/>
      <path id="Path_1029" data-name="Path 1029" d="M2145.767,3992.474v6.09H2102.8v-6.09a2.064,2.064,0,0,1,2.065-2.064H2143.7A2.064,2.064,0,0,1,2145.767,3992.474Z" transform="translate(-2102.8 -3987.823)" fill="#6277d7"/>
      <g id="Group_349" data-name="Group 349" transform="translate(10.579)">
        <rect id="Rectangle_324" data-name="Rectangle 324" width="2.131" height="5.172" rx="1.066" fill="#6277d7"/>
        <rect id="Rectangle_325" data-name="Rectangle 325" width="2.131" height="5.172" rx="1.066" transform="translate(19.678)" fill="#6277d7"/>
      </g>
      <g id="Group_350" data-name="Group 350" transform="translate(12.269 16.432)">
        <path id="Path_1030" data-name="Path 1030" d="M2118.448,4017.423l4.586-4.12a8.607,8.607,0,0,0,.7-.717,1.375,1.375,0,0,0,.35-.934,1.133,1.133,0,0,0-.434-.942,1.6,1.6,0,0,0-1.017-.342,1.4,1.4,0,0,0-1.092.434,1.75,1.75,0,0,0-.442,1.067l-2.5-.184a4.058,4.058,0,0,1,.383-1.592,3.346,3.346,0,0,1,.884-1.126,3.723,3.723,0,0,1,1.292-.675,5.542,5.542,0,0,1,1.61-.225,4.9,4.9,0,0,1,1.5.225,3.489,3.489,0,0,1,1.218.667,3.041,3.041,0,0,1,.809,1.108,3.852,3.852,0,0,1,.292,1.551,4.17,4.17,0,0,1-.116,1.025,3.52,3.52,0,0,1-.325.834,3.834,3.834,0,0,1-.492.691,7.909,7.909,0,0,1-.617.617l-3.585,3.085h5.236v2.2h-8.239Z" transform="translate(-2118.448 -4008.067)" fill="#6277d7"/>
        <path id="Path_1031" data-name="Path 1031" d="M2135.24,4015.855c-.133.033-.267.061-.4.083a2.573,2.573,0,0,1-.417.033,3.731,3.731,0,0,1-1.517-.3,3.5,3.5,0,0,1-1.167-.818,3.631,3.631,0,0,1-.75-1.226,4.241,4.241,0,0,1-.267-1.509,3.848,3.848,0,0,1,1.276-2.935,4.212,4.212,0,0,1,1.393-.826,5.274,5.274,0,0,1,3.461,0,4.186,4.186,0,0,1,1.4.826,3.85,3.85,0,0,1,1.276,2.935,5.325,5.325,0,0,1-.117,1.159,6.089,6.089,0,0,1-.308.993,6.465,6.465,0,0,1-.45.892c-.173.283-.354.576-.542.875l-2.585,4.037h-3.052Zm-2.018-3.636a1.8,1.8,0,0,0,.526,1.326,2.064,2.064,0,0,0,2.751,0,1.935,1.935,0,0,0,0-2.651,2.062,2.062,0,0,0-2.751,0A1.8,1.8,0,0,0,2133.222,4012.22Z" transform="translate(-2121.098 -4008.067)" fill="#6277d7"/>
      </g>
      <rect id="Rectangle_326" data-name="Rectangle 326" width="10.741" height="0.869" rx="0.434" transform="translate(16.113 33.775)" fill="#aec3ff"/>
    </g>
    <g id="Group_352" data-name="Group 352" transform="translate(2421.563 4128.753)">
      <path id="Path_1032" data-name="Path 1032" d="M2566.424,4234.029l-1.762,14.625-2.118,17.559-1.332,11.04-.453,3.744-1.332,11.042-1.123,9.31h-2.664L2558.1,4281l1.329-11.042.453-3.744,1.332-11.04v0l.884-7.326,1.665-13.815Z" transform="translate(-2538.156 -4209.334)" fill="#d2dcff"/>
      <path id="Path_1033" data-name="Path 1033" d="M2589.177,4301.349h-2.664l-5.934-49.212-2.186-18.107h2.664l2.29,18.98Z" transform="translate(-2543.068 -4209.334)" fill="#d2dcff"/>
      <path id="Path_1034" data-name="Path 1034" d="M2544.125,4234.029l-1.123,9.3L2538.459,4281l-1.332,11.042-1.123,9.31h-2.664L2535.8,4281l1.332-11.042,3.311-27.439,1.023-8.488Z" transform="translate(-2533.342 -4209.334)" fill="#d2dcff"/>
      <path id="Path_1035" data-name="Path 1035" d="M2566.878,4301.349h-2.664l-2.9-24.1-1.332-11.04-2.392-19.827-1.491-12.357h2.664l1.6,13.233.954,7.908v0l1.332,11.04Z" transform="translate(-2538.254 -4209.334)" fill="#d2dcff"/>
      <rect id="Rectangle_327" data-name="Rectangle 327" width="38.719" height="4.28" rx="2.14" transform="translate(3.147 20.415)" fill="#d2dcff"/>
      <rect id="Rectangle_328" data-name="Rectangle 328" width="22.054" height="4.28" rx="2.14" transform="translate(3.147 20.415)" fill="#86a2e2"/>
      <path id="Path_1036" data-name="Path 1036" d="M2554.157,4215.3H2566.1a.982.982,0,0,1,.975,1.1l-1.011,8.442a.982.982,0,0,1-.975.866h-9.926a.983.983,0,0,1-.976-.866l-1.011-8.442A.983.983,0,0,1,2554.157,4215.3Z" transform="translate(-2537.624 -4205.289)" fill="#d2dcff"/>
      <path id="Path_1037" data-name="Path 1037" d="M2564.1,4209.1v-3.839l-2.3,4.364v-7.087l-1.8,4.462-1.8-4.462v7.087l-2.3-4.364v3.839l-3.347-5.381,1.474,8.826h11.947l1.475-8.826Z" transform="translate(-2537.488 -4202.534)" fill="#fe9ecc"/>
      <path id="Path_1038" data-name="Path 1038" d="M2546.079,4234.029l-1.123,9.3-2.564-.812,1.023-8.488Z" transform="translate(-2535.296 -4209.334)" fill="#aec3ff"/>
      <path id="Path_1039" data-name="Path 1039" d="M2560.356,4247.262l-2.771-.876-1.491-12.357h2.664Z" transform="translate(-2538.254 -4209.334)" fill="#aec3ff"/>
      <path id="Path_1040" data-name="Path 1040" d="M2568.2,4234.029l-1.762,14.625-2.566-.809,1.665-13.815Z" transform="translate(-2539.934 -4209.334)" fill="#aec3ff"/>
      <path id="Path_1041" data-name="Path 1041" d="M2583.347,4253.01l-2.768-.874-2.186-18.107h2.664Z" transform="translate(-2543.068 -4209.334)" fill="#aec3ff"/>
    </g>
  </g>
</svg>
